# xmcd
#
# Track frame offsets: 
#        150
#        8206
#        24814
#        35285
#        43739
#        64280
#        101675
#        126898
#        151324
#        165009
#        193133
#        204289
#        223186
#        240806
#        262811
#        277178
#        300665
#        317358
#        338550
#
# Disc length: 4784 seconds
#
# Revision: 1
# Processed by: cddbd v1.5.2PL0 Copyright (c) Steve Scherf et al.
# Submitted via: ExactAudioCopy v0.95b4
#
DISCID=f312ae13
DTITLE=Terry Pratchett - CD1 Heisse Hüpfer
DYEAR=2009
DGENRE=Speech
TTITLE0=101
TTITLE1=102
TTITLE2=103
TTITLE3=104
TTITLE4=105
TTITLE5=106
TTITLE6=107
TTITLE7=108
TTITLE8=109
TTITLE9=110
TTITLE10=111
TTITLE11=112
TTITLE12=113
TTITLE13=114
TTITLE14=115
TTITLE15=116
TTITLE16=117
TTITLE17=118
TTITLE18=119
EXTD=gelesen von Rufus Beck
EXTT0=
EXTT1=
EXTT2=
EXTT3=
EXTT4=
EXTT5=
EXTT6=
EXTT7=
EXTT8=
EXTT9=
EXTT10=
EXTT11=
EXTT12=
EXTT13=
EXTT14=
EXTT15=
EXTT16=
EXTT17=
EXTT18=
PLAYORDER=
